<?xml version="1.0" encoding="UTF-8"?>
<svg width="20px" height="24px" viewBox="0 0 20 24" version="1.1" xmlns="http://www.w3.org/2000/svg" xmlns:xlink="http://www.w3.org/1999/xlink">
    <!-- Generator: sketchtool 52.6 (67491) - http://www.bohemiancoding.com/sketch -->
    <title>7AC52726-9361-46F8-9473-5857A6EF3406</title>
    <desc>Created with sketchtool.</desc>
    <g id="Skisser" stroke="none" stroke-width="1" fill="none" fill-rule="evenodd">
        <g id="Hem---Bolånekunder" transform="translate(-34.000000, -837.000000)" fill="#FF884D">
            <g id="list-item-låneskydd" transform="translate(20.000000, 824.000000)">
                <g id="Icon-on-background">
                    <path d="M32.9946212,24.6791226 C32.9946212,33.3354434 24.4096919,35.8750238 24.0507716,35.9766477 C24.0336802,35.9817289 24.0165887,35.9837614 23.9994973,35.9837614 L23.9572714,35.9786802 C23.5923189,35.8750238 15.0053788,33.3090212 15.0053788,24.6791226 L15.0053788,18.1477569 C15.0053788,18.0349544 15.0978736,17.9648339 15.2165083,17.9648339 L15.2225406,17.9648339 C15.6598804,18.114221 16.1927311,18.1934876 16.7647916,18.1934876 C17.7591112,18.1924714 21.2055497,17.8936972 23.8496959,14.0472339 C23.9009702,13.9720323 24.0980244,13.9720323 24.1513095,14.0472339 C26.4827829,17.4394385 29.2706982,18.1508056 31.2000201,18.1508056 C32.1621676,18.1508056 32.7714271,17.9658501 32.8086261,17.9638177 C32.8981049,17.9638177 32.9946212,18.0380031 32.9946212,18.1477569 L32.9946212,24.6791226 Z M32.4798673,16.994326 C32.4748404,16.994326 31.9711456,17.1345669 31.2000201,17.1345669 C29.5099784,17.1345669 27.0598703,16.4984015 24.9767255,13.4679779 C24.5474287,12.8440074 23.4535766,12.8440074 23.0232745,13.4679779 C20.659629,16.908962 17.6354497,17.1762327 16.7647916,17.177249 C16.1786558,17.177249 15.7785151,17.0817225 15.5271704,16.9953422 C14.7781632,16.7758347 14,17.3703343 14,18.1477569 L14,24.6791226 C14,34.0681515 23.2866838,36.8434992 23.6898406,36.9593505 C23.7913839,36.9857727 23.8949379,37 23.9994973,37 C24.1040567,37 24.2086161,36.9857727 24.3161916,36.957318 C24.7113055,36.8455317 34,34.0966062 34,24.6791226 L34,18.1477569 C34,17.3754155 33.2419444,16.7768509 32.4798673,16.994326 Z" id="Fill-3691"></path>
                </g>
            </g>
        </g>
    </g>
</svg>